# xmcd CD database file
# Copyright (C) 1997 Ti Kan
#
# Track frame offsets:
#  150
#  16800
#  32925
#  38475
#  56172
#  91335
#  109525
#  128910
#  147387
#  162487
#  173662
#  193322
#  206360
#  225612
#  245475
#  258675
#  299037
#  322900
#
# Disc length: 4591 seconds
#
# Revision: 1
# Processed by: cddbd v1.4b41PL1 Copyright (c) Steve Scherf et al.
# Submitted via: CDWizzard Release:4.32
#
DISCID=0611ed12
DTITLE=Don McLean - Killing us Softly - The 25th Anniversary Album
DYEAR=1900
DGENRE=
TTITLE0=Tapestry
TTITLE1=Everybody Loves Me
TTITLE2=Happy Trails
TTITLE3=Colour TV Blues
TTITLE4=Chain Lightning
TTITLE5=If We Try
TTITLE6=Isn't It Strange
TTITLE7=L'Affaire D'Amour
TTITLE8=Perfect Love
TTITLE9=You Don't Know Me
TTITLE10=To Have And To Hold
TTITLE11=Eventually
TTITLE12=Headroom
TTITLE13=Nineteen Sixty Seven
TTITLE14=Go Tell It On The Mountain
TTITLE15=American Pie (New 1992 Version)
TTITLE16=Vincent (New 1992 Version)
TTITLE17=And I Love You So (New 1992 Version)
EXTD=
EXTT0=
EXTT1=
EXTT2=
EXTT3=
EXTT4=
EXTT5=
EXTT6=
EXTT7=
EXTT8=
EXTT9=
EXTT10=
EXTT11=
EXTT12=
EXTT13=
EXTT14=
EXTT15=
EXTT16=
EXTT17=
PLAYORDER=
